<?xml version="1.0" encoding="UTF-8"?>
<svg xmlns="http://www.w3.org/2000/svg" xmlns:xlink="http://www.w3.org/1999/xlink" viewBox="0 0 48 48" version="1.1" width="480px" height="480px">
<g id="surface1">
<path style=" fill:#FFE0B2;" d="M 42 9.027344 C 42 7.898438 42 6.890625 41 5.910156 C 37 2.976563 30.980469 2 24 2 C 17.019531 2 11 2.976563 7 5.910156 C 6 6.890625 6 7.898438 6 9.027344 L 7 25.632813 C 8 31.332031 12 43.066406 24.035156 46 C 24.035156 46 37 44 41 25.625 Z "/>
<path style=" fill:#FFCC80;" d="M 21.59375 17.09375 C 21.554688 17.101563 22.511719 26.84375 22.511719 26.84375 L 20.3125 25.96875 L 20.65625 17.65625 Z "/>
<path style=" fill:#FFCC80;" d="M 31.15625 20.160156 C 30.136719 19.433594 28.125 18 30.46875 14.84375 C 28.601563 15.183594 26.53125 17.253906 26.53125 19.21875 C 26.53125 21.425781 28.320313 23.21875 30.53125 23.21875 C 30.742188 23.21875 30.949219 23.199219 31.15625 23.167969 Z "/>
<path style=" fill:#FFCC80;" d="M 23.121094 38.984375 C 17.539063 38.652344 16.039063 34.484375 16.039063 34.484375 L 21.207031 34.152344 L 23.539063 29.796875 C 23.539063 29.796875 21.214844 30.984375 16.039063 30.984375 C 10.847656 30.984375 8.101563 25.417969 11.179688 21.609375 C 12.09375 22.550781 13.289063 23.21875 14.40625 23.21875 C 14.621094 23.21875 14.828125 23.203125 15.03125 23.167969 L 15.03125 20.160156 C 14.488281 19.773438 14.308594 19.28125 14.25 18.703125 C 13.3125 18.238281 12.664063 17.285156 12.664063 16.167969 C 12.664063 15.171875 13.179688 14.300781 13.957031 13.792969 C 13.96875 13.710938 13.976563 13.632813 14 13.585938 C 12.992188 13.765625 11.816406 14.585938 10.941406 15.605469 C 10.960938 14.925781 11.09375 14.476563 11.09375 14.476563 C 11.09375 14.476563 11.53125 8.71875 12.121094 3.433594 C 12.121094 3.433594 7.320313 4.785156 6.308594 6.945313 C 6.171875 7.242188 5.960938 8.222656 6.050781 9.847656 C 6.300781 14.53125 6.8125 22.511719 7.039063 25.617188 C 7.164063 27.378906 7.796875 28.863281 8.085938 29.773438 C 12.625 44.128906 24.035156 46 24.035156 46 Z "/>
<path style=" fill:#424242;" d="M 32 12 C 28.5625 12 26.804688 15.074219 26.4375 15.4375 C 25.851563 16.023438 25.851563 16.976563 26.4375 17.558594 C 27.023438 18.144531 27.976563 18.144531 28.558594 17.558594 C 28.972656 17.148438 30.3125 14 33 14 C 34.386719 14 36.046875 14.640625 38 16 C 36.144531 12.878906 33.996094 12 32 12 Z "/>
<path style=" fill:#424242;" d="M 16 12 C 14.003906 12 11.855469 12.878906 10 16 C 11.953125 14.640625 13.613281 14 15 14 C 17.6875 14 19.027344 17.148438 19.4375 17.5625 C 20.023438 18.148438 20.972656 18.148438 21.558594 17.5625 C 22.144531 16.976563 22.144531 16.027344 21.558594 15.441406 C 21.195313 15.074219 19.4375 12 16 12 Z "/>
<path style=" fill:#424242;" d="M 16 18.519531 C 14.359375 18.519531 12.917969 19.113281 12 20.019531 C 12.917969 20.925781 14.359375 21.519531 16 21.519531 C 17.640625 21.519531 19.082031 20.925781 20 20.019531 C 19.082031 19.113281 17.640625 18.519531 16 18.519531 Z "/>
<path style=" fill:#424242;" d="M 32 18.519531 C 30.359375 18.519531 28.917969 19.113281 28 20.019531 C 28.917969 20.925781 30.359375 21.519531 32 21.519531 C 33.640625 21.519531 35.082031 20.925781 36 20.019531 C 35.082031 19.113281 33.640625 18.519531 32 18.519531 Z "/>
<path style=" fill:#424242;" d="M 10 27 L 15 35 L 22 35 L 24 33 L 26 35 L 33 35 L 38 27 L 32 33 L 28 33 L 25 29 L 23 29 L 20 33 L 16 33 Z "/>
<path style=" fill:#424242;" d="M 22 38 L 22 45.390625 C 22.652344 45.617188 23.328125 45.828125 24.035156 46 C 24.035156 46 24.796875 45.878906 26 45.445313 L 26 38 Z "/>
</g>
</svg>
